<svg version="1.2" xmlns="http://www.w3.org/2000/svg" viewBox="0 0 250 50" width="250" height="50">
	<title>669f6150455a7f0f0de09074_Discovery Plus Logo-svg</title>
	<style>
		.s0 { fill: #bdb4fe } 
	</style>
	<path fill-rule="evenodd" class="s0" d="m95.6 14.2v19.4h-3.2v-2.4c-1.1 1.5-2.5 2.7-4.8 2.7-3.3 0-6.5-2.7-6.5-7.3 0-4.7 3.2-7.3 6.5-7.3 2.3 0 3.8 1.2 4.8 2.5v-7.6zm-3.2 12.4c0-2.8-1.8-4.5-4-4.5-2.2 0-4.1 1.7-4.1 4.5 0 2.7 1.9 4.5 4.1 4.5 2.1 0 4-1.8 4-4.5zm10.3-7v14h-3.2v-14zm0.1-5.4v3.1h-3.5v-3.1zm8.5 19.6c-2 0-4.2-0.7-5.9-2.1l1.4-2.1c1.5 1.1 3.2 1.7 4.6 1.7 1.4 0 2.2-0.6 2.2-1.5v-0.1c0-1.1-1.5-1.4-3.1-1.9-2.1-0.6-4.4-1.5-4.4-4.1v-0.1c0-2.6 2.2-4.3 5-4.3 1.7 0 3.6 0.7 5.1 1.6l-1.3 2.3c-1.3-0.8-2.8-1.3-3.9-1.3-1.3 0-2 0.6-2 1.4 0 1.1 1.5 1.5 3.2 2 2 0.6 4.3 1.6 4.3 4.1 0 3-2.3 4.4-5.2 4.4zm14.5 0.1c-4.1 0-7.2-3.3-7.2-7.3 0-4 3.1-7.3 7.3-7.3 2.6 0 4.2 1 5.5 2.4l-1.9 2.1c-1-1-2.1-1.7-3.7-1.7-2.3 0-4 2-4 4.5 0 2.4 1.7 4.5 4.2 4.5 1.5 0 2.6-0.7 3.6-1.7l2 1.9c-1.4 1.5-3 2.6-5.8 2.6zm14.6-14.6c4.3 0 7.5 3.3 7.5 7.3 0 4-3.3 7.3-7.5 7.3-4.3 0-7.4-3.2-7.4-7.3 0-4 3.1-7.3 7.4-7.3zm4.3 7.3c0-2.5-1.8-4.5-4.3-4.5-2.6 0-4.2 2-4.2 4.5 0 2.5 1.7 4.5 4.2 4.5 2.6 0 4.3-2 4.3-4.5zm18.4-7l-5.7 14.1h-2.9l-5.8-14.1h3.5l3.8 10.3 3.7-10.3zm14.5 7.2c0 0.3 0 0.6-0.1 0.9h-10.2c0.3 2.3 1.9 3.6 4 3.6 1.6 0 2.7-0.6 3.8-1.7l1.9 1.7c-1.4 1.6-3.2 2.6-5.8 2.6-4 0-7.1-2.9-7.1-7.3 0-4 2.8-7.3 6.8-7.3 4.4 0 6.7 3.5 6.7 7.5zm-3.2-1.2c-0.2-2.1-1.4-3.7-3.5-3.7-2 0-3.4 1.5-3.7 3.7zm9.4 8h-3.2v-14h3.2v3.1c0.9-2.1 2.5-3.5 5-3.4v3.4h-0.2c-2.8 0-4.8 1.8-4.8 5.5zm15.5 0.4c-1.1 2.9-2.4 4-4.6 4-1.4 0-2.4-0.4-3.3-0.9l1-2.4c0.6 0.4 1.3 0.6 1.9 0.6 0.9 0 1.5-0.4 2-1.6l-5.8-14h3.4l4 10.3 3.6-10.3h3.3l-5.5 14.3zm19.2-0.3h-2.9v-8.2h-8.1v-2.9h8.1v-8.3h2.9v8.3h8.1v2.9h-8.1z"/>
	<path class="s0" d="m38.8 16.7c-7.2 0-13.1 5.8-13.1 13.1 0 7.2 5.9 13 13.1 13 7.2 0 13.1-5.8 13.1-13 0-7.3-5.9-13.1-13.1-13.1z"/>
	<path fill-rule="evenodd" class="s0" d="m73.4 24.2c0 6-2.3 11.5-6.6 15.5-4.1 3.9-9.5 6-15.3 6h-12.6c-4 0-7.9-1.6-10.9-4.3-3.3-3-5.1-7.1-5.1-11.7 0-3.9 1.5-7.6 4.1-10.6 2.4-2.6 5.6-4.4 9-5.1l0.1-10.2v-1.1h15.4c5.7 0 11.1 2.1 15.3 6 4.3 4.1 6.6 9.4 6.6 15.5zm-7.4 14.7c4.1-3.8 6.3-9.2 6.3-14.7 0-5.6-2.2-10.8-6.3-14.6-3.9-3.7-9.1-5.8-14.5-5.8h-14.3v11.2c-7.4 0.9-13.1 7.2-13.1 14.7 0 4.2 1.6 8.1 4.7 10.9 2.7 2.5 6.4 3.9 10.1 3.9h12.6c5.5 0 10.6-2 14.5-5.6z"/>
	<path class="s0" d="m70.6 24c0 10.3-8.3 18.7-18.6 18.7h-6.2q0.6-0.3 1.1-0.7c4.1-2.6 6.8-7.2 6.8-12.4 0-8.2-6.6-14.8-14.8-14.8v-9.4h13.1c10.3 0 18.6 8.3 18.6 18.6z"/>
</svg>