<svg version="1.2" xmlns="http://www.w3.org/2000/svg" viewBox="0 0 250 50" width="250" height="50">
	<title>669f6150455a7f0f0de09086_Group 20fancentro-svg</title>
	<style>
		.s0 { fill: #bdb4fe } 
	</style>
	<path class="s0" d="m107.3 32.5c-3.1 3-7.3 4.6-11.5 4.5-11.2 0-15.6-7-15.6-14.8 0-7.4 4.9-15.2 15.6-15.2 4.2 0 8.1 1.6 11.1 4.6l-5 4.9c-1.6-1.7-3.8-2.6-6.1-2.6-5.5 0-7.7 4.5-7.6 8.3 0.1 3.7 2 7.9 7.6 7.9 2.6-0.1 5-1.1 6.8-3z"/>
	<path class="s0" d="m131.6 36.2h-22.9v-28.6h22.3v6.7h-14.4v4.1h13.5v6.6h-13.5v4.4h15z"/>
	<path class="s0" d="m152.8 23.2c-0.2-3.4-0.2-4.7-0.2-5.8v-9.8h8.1v28.6h-6.8l-11.9-15.4 0.1 6.2v9.2h-8.2v-28.6h6.8z"/>
	<path class="s0" d="m171.7 14.2h-8.4v-6.6h24.7v6.6h-8.4v22h-8z"/>
	<path fill-rule="evenodd" class="s0" d="m217.1 36.2h-8.9l-6.6-9.3h-2.8v9.3h-8.2v-28.6h14c7.4 0 11.2 4.7 11.2 9.9 0 3.5-1.3 6.4-6.1 8.6l7.4 9.6zm-18.3-22.1v6.8h5.9c2.2 0 3.1-1.6 3.1-3.3 0-1.8-1-3.5-3.2-3.5z"/>
	<path fill-rule="evenodd" class="s0" d="m233.4 36.9c-9.4 0-16-5.5-16-14.9 0-9.4 6.6-15 16-15 9.3 0 15.9 5.5 15.9 15 0 9.4-6.5 14.9-15.9 14.9zm0-23.1c-4.6 0-7.9 3.4-7.9 8.2 0 4.7 3.3 8.1 7.9 8.1 4.7 0 7.8-3.4 7.8-8.1 0-5-3-8.2-7.8-8.2z"/>
	<path class="s0" d="m20.8 26.6l0.6-1.5 0.4-0.9 0.1-0.3 0.4-0.8 1.4-3.4 0.5-1.1v-0.4h-11.8v-2h12.2v-9h-23.6v29.4h11.4v-9.8h8.4z"/>
	<path class="s0" d="m67 7.2v5.4 6.2l-7.3-11.6h-9.6v11.2l0.1 0.3 1.7 4.3 0.4 0.9 0.1 0.2 0.4 0.9 4 10.1 0.6 1.4h4.2v-5.1-6.6l7.2 11.6h9.6v-29.2z"/>
	<path fill-rule="evenodd" class="s0" d="m27.2 42.3l1.8-7.6-10.2 2.2 0.5-1.2 3.7-9.3 0.5-1.3 0.3-0.8 0.1-0.3 0.3-0.7 1.1-2.9 5.4-13.2h13.1l5 12.3 1.5 3.8 0.3 0.7 0.1 0.3 0.3 0.8 3.4 8.7 0.8 1.9 0.3 1.2-10-2.2 1.7 7.6-10-7.3zm-1.3-18.2l7 5.1-2.2 6.9-0.5 1.4 6.5-4.8 0.5-0.3 0.5 0.3 6.6 4.8-0.4-1.4-2.3-6.9 7.1-5.1h-8.7l-2.7-8.2-2.6 8.2z"/>
</svg>