<svg version="1.2" xmlns="http://www.w3.org/2000/svg" viewBox="0 0 250 50" width="250" height="50">
	<title>669f6150455a7f0f0de09087_Group 21onlyfans-svg</title>
	<style>
		.s0 { fill: #bdb4fe } 
	</style>
	<path fill-rule="evenodd" class="s0" d="m18.5 37.8c-9.1 0-16.5-7.4-16.5-16.5 0-9.1 7.4-16.5 16.5-16.5 9.2 0 16.6 7.4 16.6 16.5 0 9.1-7.4 16.5-16.6 16.5zm5-16.5c0-2.7-2.2-5-5-5-2.7 0-4.9 2.3-4.9 5 0 2.7 2.2 5 4.9 5 2.8 0 5-2.3 5-5z"/>
	<path class="s0" d="m37.1 17.2c4.2 1.2 9.2 0 9.2 0-1.5 6.3-6 10.2-12.6 10.7-2.5 5.8-8.4 9.9-15.2 9.9l5-15.7c5.1-16.2 7.7-17.3 19.8-17.3h8.3c-1.4 6.1-6.2 10.8-14.5 12.4z"/>
	<path fill-rule="evenodd" class="s0" d="m96.1 21.3c0 9.4-4.7 16.1-13.9 16.1-9.3 0-13.9-6.7-13.9-16.1 0-9.3 4.6-16.1 13.9-16.1 9.4 0 13.9 6.6 13.9 16.1zm-7.7 0c0-5.4-0.9-10.8-6.2-10.8-5.4 0-6.2 5.4-6.2 10.8 0 5.3 0.9 10.8 6.2 10.8 5.4 0 6.2-5.4 6.2-10.8zm31.9-1.8v17.2h-5.9c-0.6 0-1.1-0.5-1.1-1.1v-14.9c0-1.9-0.4-3.2-2.3-3.2q-1.9 0-3.7 2.5c-0.2 0.4-0.3 0.8-0.3 1.3v15.4h-5.9c-0.7 0-1.2-0.5-1.2-1.1v-22.5h4.3c1.1 0 2 0.8 2.2 1.9l0.2 0.9c1.9-2.3 4.1-3.5 7.1-3.5 4 0 6.6 2.4 6.6 7.1zm14.2 13l1.1 4.1q-1.9 0.8-4.2 0.8c-4 0-6.5-2.3-6.5-6.7v-25.9c0-0.6 0.4-1.1 1-1.2l6-0.6v27.4q0 1.5 1.2 1.5 0.2 0 0.4-0.1c0.4 0 0.9 0.2 1 0.7zm23.6-19.4l-7.5 23.6c-1.9 6.2-6 9.1-12.2 9.8-0.6 0-1.1-0.4-1.2-1l-0.6-3.9c4-0.5 6.2-1.5 7.6-4.9h-0.8c-0.9 0-1.8-0.7-2.1-1.6l-6.7-22h6.6c0.5 0 1 0.4 1.1 0.9l4 18.2 4.4-18.2c0.1-0.5 0.6-0.9 1.1-0.9z"/>
	<path fill-rule="evenodd" class="s0" d="m162.2 5.9h17.2l-0.5 3.8c-0.1 0.8-0.8 1.4-1.7 1.4h-8.8v8.2h8.8l-0.4 3.7c-0.1 0.8-0.8 1.5-1.7 1.5h-6.7v11.1c0 0.6-0.5 1.1-1.1 1.1h-6.2v-29.7c0-0.6 0.5-1.1 1.1-1.1zm41.6 26.5l-1 2.4c-0.7 1.7-2.7 2.4-4.3 1.7-1.1-0.6-2.1-1.4-2.8-2.7-1.5 2.2-3.4 3.6-6.3 3.6-6.6 0-9.1-5.9-9.1-12.6 0-6.7 3.3-12.4 9.8-12.4 2.4 0 3.8 0.9 5.3 2.7v-0.2c0.2-1 1.1-1.8 2.2-1.8h4.2v15.7c0 1.8 0.4 2.8 2 3.6zm-9-3.4v-8.7c0-0.6-0.2-1.1-0.6-1.5-0.9-1-1.5-1.3-2.5-1.3-3.4 0-4.1 4-4.1 7.4 0 3.4 0.4 7.4 3.7 7.4 1.4 0 2.2-0.7 3.1-2 0.3-0.3 0.4-0.8 0.4-1.3zm32.6-9.5v17.2h-5.9c-0.6 0-1.1-0.5-1.1-1.1v-14.9c0-1.9-0.4-3.2-2.2-3.2q-1.9 0-3.7 2.5c-0.3 0.4-0.4 0.8-0.4 1.3v15.4h-5.9c-0.6 0-1.1-0.5-1.1-1.1v-22.5h4.2c1.1 0 2 0.8 2.2 1.9l0.2 0.9q1.5-1.8 3.3-2.7c4.2-2.1 10.4-0.9 10.4 6.3zm22.8 10.2c0 5.2-5.1 7.7-10.5 7.7-3.5 0-7.2-1-9.8-3.5l2.7-3c0.4-0.4 1-0.5 1.4-0.2q3.4 2.2 7.1 1.6c1.1-0.2 1.9-1.1 1.9-2.2-0.1-1.2-0.6-1.7-1.8-2.1-2.9-1.3-10.2-2-10.2-8.4 0-4.8 4.7-7.2 9.7-7.2 3.1 0 6.2 0.9 8.6 2.8l-2 3.1c-0.3 0.5-0.9 0.7-1.4 0.4q-3.1-1.7-6.2-1.2c-0.9 0.1-1.7 0.9-1.6 1.8 0 1 0.7 1.4 1.7 1.8 4.2 1.8 10.4 2 10.4 8.6z"/>
</svg>