<svg version="1.2" xmlns="http://www.w3.org/2000/svg" viewBox="0 0 250 50" width="250" height="50">
	<title>669f6150455a7f0f0de09075_playboy-3-svg</title>
	<defs>
		<clipPath clipPathUnits="userSpaceOnUse" id="cp1">
			<path d="m21.92 5.38h206v39.55h-206z"/>
		</clipPath>
	</defs>
	<style>
		.s0 { fill: #bdb4fe } 
	</style>
	<g id="Clip-Path" clip-path="url(#cp1)">
		<g>
			<path fill-rule="evenodd" class="s0" d="m47.8 5.3c-0.2 1.8-0.4 3.5-0.5 5.2-0.3 2.4-0.4 4.7-0.8 6.3-1 3.7-2.5 5.5-4.8 7.7 2.5 2.4 3.8 5.7 1.9 11.7-0.3 1.1-0.4 1.3-1.4 1.9-1.9 0.8-5.4 2.2-5.6 2.1-0.4-0.1-0.1-1.3 0.1-1.5 0.2-0.3 0.3-0.6 0-0.8-0.3-0.2-0.8 0.2-1.1 0.4-0.3 0.2-1.7 0.9-2.5 1.3-0.8 0.4-0.9 0.2-1.2-0.7-0.3-1.2 0.5-2 0.7-2.5-3.1-0.4-6.6-2.7-6.8-5.1-0.2-1.7 0.9-4.6 4.2-6.4 1.4-0.9 3.3-1.7 5.9-1.7 0.1 0 0.1-0.2 0-0.2-5.3-1.5-13.2-6.4-13.9-17.6 2.4 1.4 7.3 5.4 9 7.1 2.3 1.7 6 7.4 7.9 10.6 0.1 0.1 0.6 0.7 0.7-0.3 0.1-3.1 0.3-6.6 1.5-9.4 1.3-3.3 3.9-6.1 6.7-8.1zm-14.5 23c0-1-0.7-1.7-1.7-1.7-0.9 0-1.6 0.7-1.6 1.7 0 0.9 0.7 1.7 1.6 1.7 1 0 1.7-0.8 1.7-1.7z"/>
			<path fill-rule="evenodd" class="s0" d="m30.8 40.6c1.6 1.2 1.5 1.1 3.1 0 0.5-0.3 0.8-0.7 1.3-0.9l0.1 5.3-1.6-1.8c-1.1-0.9-1.3-1.2-2.5-0.4-0.6 0.4-1 0.8-1.6 1.2l-0.2-4.7zm12.1-0.7v1.1l-6.3 1.8-0.1-1.2z"/>
			<path fill-rule="evenodd" class="s0" d="m141 14.7v5.6h-2l2.8 4.9 3-4.9h-1.9v-5.6h9.1v5.6h-1.2l-6.4 10.2v4.7h2.9v5.4h-13.9v-5.4h2.9v-4.5l-7.1-10.5h-1.3v-5.5zm-12 20.6v5.3h-12v-5.3h2.5l-0.7-2.3h-6.1l-0.8 2.3h2.4v5.3h-9.5v-5.3h1.7l6.6-20.6h8.2l6.2 20.6zm-10.9-7.8l-1.8-6.2-1.9 6.2zm85.2 0.3c0 7.5-5.6 13.6-12.5 13.6-7 0-12.6-6.1-12.6-13.6 0-7.6 5.7-13.7 12.6-13.7 6.9 0 12.5 6.2 12.5 13.7zm-9 0.1c0-6.5-1.8-8.2-3.4-8.2-1.6 0-3.4 1.7-3.4 8.2 0 6.5 1.8 8.2 3.4 8.2 1.5 0 3.4-1.7 3.4-8.2zm-17.3 5.6c0 2.7-2.5 7.2-7 7.2h-15.2v-5.4h2.1v-15h-2.1v-5.6h14.3c3.9 0 7.4 2.3 7.4 6 0.1 5.1-3.4 6.2-4.9 6.8 4.4 1.3 5.4 3.1 5.4 6zm-8.1-0.6c0-1.4-1.1-2.6-2.5-2.6h-1.7v5.2h1.7c1.3 0 2.4-1.1 2.5-2.6zm0-10.3c0-1.3-1.1-2.3-2.5-2.3h-1.7v4.6h1.7c1.3 0 2.4-0.9 2.5-2.3zm-88.7 0.4c0 4.5-3.5 8.5-7.8 8.5h-4.1v3.7h2.4v5.6h-13.1v-5.6h2.4v-14.7h-2.4v-5.8h14.7c4.3 0 7.8 3.6 7.9 8.3zm-8 0.2c0-1.6-1-2.9-2.1-2.9h-1.8v5.6h1.7c1.2 0 2.1-1.2 2.2-2.7zm23.4-8.5v5.6h-3.1v15h4.5v-4.2h5.7v9.5h-20.8v-5.3h2.3v-15h-2.3v-5.6zm121.2 0v5.6h-2l2.8 4.9 3-4.9h-1.9v-5.6h9.2v5.6h-1.3l-6.4 10.2v4.7h3v5.4h-14v-5.4h2.9v-4.5l-7-10.5h-1.4v-5.5z"/>
		</g>
	</g>
</svg>