<svg version="1.2" xmlns="http://www.w3.org/2000/svg" viewBox="0 0 250 50" width="250" height="50">
	<title>669f6150455a7f0f0de09076_talpa-wordmark-1 1-svg</title>
	<defs>
		<clipPath clipPathUnits="userSpaceOnUse" id="cp1">
			<path d="m164.03 1v49.11h-78.03v-49.11z"/>
		</clipPath>
	</defs>
	<style>
		.s0 { fill: #bdb4fe } 
	</style>
	<g id="Clip-Path" clip-path="url(#cp1)">
		<g>
			<path fill-rule="evenodd" class="s0" d="m164 32.9v6.1c0 0.5-0.3 0.8-0.7 0.8-0.4 0-0.7-0.4-0.7-0.8v-0.1q-1 1.1-2.5 1.1c-2.1 0-3.7-1.9-3.7-3.9 0-2.1 1.6-4 3.7-4 0.9 0 1.8 0.4 2.5 1.1v-0.1c0-0.5 0.3-0.8 0.7-0.8 0.5 0 0.7 0.4 0.7 0.6zm-1.3 3.2c0-1.4-1.1-2.6-2.4-2.6-1.4 0-2.4 1.2-2.4 2.6 0 1.5 1 2.7 2.4 2.7 1.3 0 2.4-1.2 2.4-2.7zm-12.6-5.9v8.9c0 0.5-0.4 0.8-0.8 0.8-0.4 0-0.7-0.4-0.7-0.8v-0.1q-0.9 1-2.4 1c-2.2 0-3.8-1.8-3.8-3.9 0-2 1.6-3.9 3.8-3.9 0.9 0 1.8 0.4 2.4 1.1v-3c0-0.4 0.4-0.7 0.7-0.7 0.4 0 0.8 0.4 0.8 0.6zm-1.5 5.9c0-1.4-1.1-2.6-2.4-2.6-1.3 0-2.4 1.2-2.4 2.6 0 1.5 1.1 2.7 2.4 2.7 1.3 0 2.4-1.2 2.4-2.7zm-7.8 0.1c0 0.4-0.3 0.7-0.6 0.7h-5.3c0.3 1.1 1.3 1.9 2.4 1.9 0.6 0 1.3-0.2 1.9-0.6 0.2-0.2 0.6-0.2 0.9 0 0.2 0.3 0.2 0.7-0.1 0.9-0.6 0.7-1.7 0.9-2.7 0.9-2.2 0-3.8-1.8-3.8-3.9 0-2 1.6-3.9 3.8-3.9 2.1 0 3.5 1.9 3.5 4zm-1.4-0.7c-0.2-1.2-1-2-2.1-2-1.2 0-2.1 0.8-2.4 2zm-7.4 0.1v3.7c0 0.5-0.4 0.7-0.8 0.7-0.4 0-0.7-0.3-0.7-0.7v-3.6c0-1.3-0.6-2.1-1.7-2.1-1.2 0-1.7 0.8-1.7 2.1v3.6c0 0.5-0.4 0.7-0.8 0.7-0.4 0-0.7-0.3-0.7-0.7v-3.6c0-1.3-0.6-2.1-1.7-2.1-1.2 0-1.7 0.8-1.7 2.1v3.6c0 0.5-0.4 0.7-0.8 0.7-0.4 0-0.7-0.3-0.7-0.7v-3.7c0-2 1.2-3.4 3.1-3.4 1.1 0 1.8 0.5 2.4 1.2 0.6-0.7 1.3-1.2 2.4-1.2 1.8 0 3.1 1.4 3.4 3.4zm22.3-2.5v6.1c0 0.5-0.4 0.8-0.7 0.8-0.5 0-0.8-0.4-0.8-0.8v-6.1c0-0.5 0.4-0.8 0.8-0.8 0.4 0 0.7 0.4 0.7 0.8zm-0.7-1.9c-0.5 0-0.9-0.3-0.9-0.8 0-0.4 0.4-0.8 0.9-0.8 0.4 0 0.8 0.4 0.8 0.8 0 0.5-0.4 0.8-0.8 0.8zm-17.1-8.7v-9c0-0.4 0.3-0.7 0.7-0.7 0.5 0 0.8 0.4 0.8 0.7v8.9c0 0.5-0.4 0.8-0.8 0.8-0.4 0-0.7-0.4-0.7-0.7zm-15.8-0.1v-8.9c0-0.4 0.4-0.7 0.7-0.7 0.4 0 0.7 0.4 0.8 0.7v2h2c0.3 0 0.6 0.3 0.6 0.7 0.1 0.4-0.3 0.7-0.6 0.7h-2.1v5.5c0 0.5-0.4 0.8-0.8 0.8-0.3 0-0.6-0.4-0.6-0.8zm12.8-6.1v6c0 0.4-0.3 0.7-0.7 0.7-0.5 0-0.7-0.4-0.7-0.7v-0.2q-1 1.1-2.5 1.1c-2.2 0-3.7-1.8-3.7-3.9 0-2.1 1.5-3.9 3.7-3.9 1 0 1.8 0.4 2.5 1.1v-0.2c0-0.5 0.3-0.8 0.7-0.8 0.3 0 0.7 0.3 0.7 0.8zm-1.4 3.1c0-1.5-1.1-2.7-2.4-2.7-1.4 0-2.5 1.2-2.5 2.7 0 1.4 1.1 2.6 2.5 2.6 1.3 0 2.4-1.2 2.4-2.6zm22 3.8c-2.2 0-3.7-1.8-3.7-3.9 0-2.1 1.5-3.9 3.7-3.9 0.9 0 1.8 0.3 2.5 1.1v-0.2c0-0.5 0.3-0.8 0.7-0.8 0.4 0 0.7 0.3 0.8 0.8v6.1c0 0.5-0.4 0.8-0.7 0.8-0.5 0-0.8-0.4-0.8-0.8v-0.1c-0.6 0.6-1.5 1-2.5 0.9zm2.5-3.8c0-1.5-1.1-2.7-2.5-2.7-1.3 0-2.4 1.2-2.4 2.7 0 1.4 1.1 2.6 2.4 2.6 1.4 0 2.5-1.2 2.5-2.6zm-11.8 3.9c-0.9 0-1.9-0.3-2.5-1v3.1c0 0.5-0.3 0.8-0.7 0.8-0.5 0-0.7-0.4-0.7-0.8v-9.1c0-0.5 0.3-0.8 0.7-0.8 0.3 0 0.7 0.3 0.7 0.8v0.2q1-1 2.5-1c2.1 0 3.7 1.8 3.7 3.9 0 2-1.6 3.9-3.7 3.9zm2.3-3.9c0-1.5-1.1-2.7-2.4-2.7-1.3 0-2.4 1.2-2.4 2.7 0 1.4 1.1 2.6 2.4 2.6 1.3 0 2.4-1.2 2.4-2.6zm-57.2 1.6c-2.1 0-3.8-1.8-3.8-3.9 0-2.2 1.7-3.9 3.8-3.9 2.1 0 3.9 1.7 3.9 3.9 0 2.1-1.8 3.9-3.9 3.9zm9.7 0c-2.1 0-3.8-1.8-3.8-3.9 0-2.2 1.7-3.9 3.8-3.9 2.1 0 3.8 1.7 3.8 3.9 0 2.1-1.7 3.9-3.8 3.9zm9.6 0c-2.1 0-3.8-1.8-3.8-3.9 0-2.2 1.7-3.9 3.8-3.9 2.1 0 3.8 1.7 3.8 3.9 0 2.1-1.7 3.9-3.8 3.9zm-19.3 9.7c-2.1 0-3.8-1.7-3.8-3.9 0-2.2 1.7-3.9 3.8-3.9 2.1 0 3.8 1.7 3.8 3.9 0 2.2-1.7 3.9-3.8 3.9zm9.7 0c-2.1 0-3.8-1.7-3.8-3.9 0-2.2 1.7-3.9 3.8-3.9 2.1 0 3.8 1.7 3.8 3.9 0 2.2-1.7 3.9-3.8 3.9zm9.6 0c-2.1 0-3.8-1.7-3.8-3.9 0-2.2 1.7-3.9 3.8-3.9 2.1 0 3.8 1.7 3.8 3.9 0 2.2-1.7 3.9-3.8 3.9zm-19.3 9.6c-2.1 0-3.8-1.7-3.8-3.8 0-2.2 1.7-3.9 3.8-3.9 2.1 0 3.8 1.7 3.8 3.9 0 2.1-1.7 3.8-3.8 3.8zm9.7 0.1c-2.1 0-3.8-1.7-3.8-3.9 0-2.2 1.7-3.9 3.8-3.9 2.1 0 3.8 1.7 3.8 3.9 0 2.2-1.7 3.9-3.8 3.9zm9.6 0c-2.1 0-3.8-1.7-3.8-3.9 0-2.2 1.7-3.9 3.8-3.9 2.1 0 3.8 1.7 3.8 3.9 0 2.2-1.7 3.9-3.8 3.9zm-9.6 9.7c-2.1 0-3.8-1.7-3.8-3.9 0-2.1 1.7-3.9 3.8-3.9 2.1 0 3.8 1.8 3.8 3.9 0 2.2-1.7 3.9-3.8 3.9z"/>
		</g>
	</g>
</svg>